<?xml version="1.0" encoding="utf-8"?>
<!-- Generator: Adobe Illustrator 17.1.0, SVG Export Plug-In . SVG Version: 6.00 Build 0)  -->
<!DOCTYPE svg PUBLIC "-//W3C//DTD SVG 1.1//EN" "http://www.w3.org/Graphics/SVG/1.1/DTD/svg11.dtd">
<svg version="1.1" id="Layer_1" xmlns="http://www.w3.org/2000/svg" xmlns:xlink="http://www.w3.org/1999/xlink" x="0px" y="0px"
	 viewBox="0 0 612 792" enable-background="new 0 0 612 792" xml:space="preserve">
<defs>

<g id="tank">
<linearGradient id="SVGID_1_" gradientUnits="userSpaceOnUse" x1="164.2" y1="408.35" x2="449.8" y2="408.35" gradientTransform="matrix(1 0 0 -1 0 792)">
	<stop  offset="4.081633e-02" style="stop-color:#868686"/>
	<stop  offset="0.2362" style="stop-color:#9A9A9A"/>
	<stop  offset="0.5357" style="stop-color:#C3C3C3"/>
	<stop  offset="0.9592" style="stop-color:#868686"/>
</linearGradient>
<path fill="#FFFFFF" d="M0.2,0.7v956.7H612V0.7H0.2z M442.1,135L442.1,135l-0.1,20.9l-0.8,321.5h-3.7v6c0,7.6-6.1,7.5-17,7.5
	c-2.6,6.5-42,12-88.2,13.7l-1.3,1.9v5.5l-15.3,17.7v63h74.9v11.2H217.9v-11.2H294v-64.5l-11.5-16v-1.6l-4-6.1
	c-46.2-1.9-85-7.4-85.9-14h0.1c-10.1-1.2-16.5-1.4-17-7v-6.1H172l0.9-361.7h3.7v-6c0-7.6,6.1-7.5,17-7.5
	c2.6-6.6,42.7-12.1,89.5-13.7v-5.1h48.3v5.1c48.1,1.7,89.2,7.4,90.2,14.2h-0.1c10.1,1.2,16.5,1.4,17,7v6.1h3.7L442.1,135L442.1,135z
	"/>
<path fill="url(#SVGID_1_)" d="M445.9,109.9v-6.3c-0.5-5.8-7.2-6.1-18-7.3h0.1c-1-7.2-38.7-13.1-89.7-14.9V76h-62.5v5.4
	c-49.7,1.7-86.7,7.5-89.5,14.4c-11.6,0-18-0.1-18,7.8v6.3h-3.9l-0.2,373.2h3.9v6.3c0.5,5.8,7.2,6.1,18,7.3H186
	c1,7.2,36.3,12.8,87.3,14.6v5.3l4.7-0.2l11,18V589h-53.3v-3h-2.4v-7.1h-1c-0.6-1.6-2.2-2.8-4-2.8c-1.9,0-3.4,1.2-4,2.8h-1v7.1h-1.8
	v3H214v17.4h7.5v14.3h1.8v4h1.9V642h6.2v-17.3h1.9v-4h2.4v-14.3h138.4v14.3h1.9v1.9h1.9v68.7h6.2v-68.7h1.9v-1.9h2.4v-14.3h6.1V589
	h-6.1v-3H386v-7.1h-1c-0.6-1.6-2.2-2.8-4-2.8s-3.4,1.2-4,2.8h-1v7.1h-1.9v3h-52.7v-53.5l12.7-18.4h4.1v-5.4
	c49.7-1.7,86.7-7.5,89.5-14.4c11.6,0,18,0.1,18-7.8v-6.3h3.9l0.2-373.2L445.9,109.9L445.9,109.9z M441.2,477.4h-3.7v6
	c0,7.6-6.1,7.5-17,7.5c-2.6,6.6-42.7,12.1-89.4,13.7v7.3l-15.3,17.7v63h74.9v11.2H217.9v-11.2H294v-64.5l-11.5-16v-7.5
	c-48-1.7-89-7.4-90-14.2h0.1c-10.1-1.2-16.5-1.4-17-7v-6.1h-3.7l0.9-361.7h3.7v-6c0-7.6,6.1-7.5,17-7.5c2.6-6.6,42.7-12.1,89.5-13.7
	v-5.1h48.3v5.1c48.1,1.7,89.2,7.4,90.2,14.2h-0.1c10.1,1.2,16.5,1.4,17,7v6.1h3.7L441.2,477.4z"/>
	</g>
	</defs>
</svg>
